<svg width="40" height="40" viewBox="0 0 40 40" fill="none" xmlns="http://www.w3.org/2000/svg">
<path d="M0 20C0 8.95431 8.95431 0 20 0C31.0457 0 40 8.95431 40 20C40 31.0457 31.0457 40 20 40C8.95431 40 0 31.0457 0 20Z" fill="white"/>
<path d="M24.0303 12.8125H24.0312C24.5386 12.8127 25.0416 12.9008 25.5176 13.0732L25.7197 13.1523C26.1875 13.3486 26.6169 13.6249 26.9893 13.9678L27.1455 14.1191C27.9744 14.963 28.4385 16.0984 28.4385 17.2812C28.4385 18.3902 28.0309 19.4578 27.2969 20.2822L27.1455 20.4434L19.999 27.6797L12.8535 20.4434C12.0248 19.5996 11.5605 18.464 11.5605 17.2812C11.5605 16.1722 11.9689 15.1047 12.7031 14.2803L12.8535 14.1191C13.2601 13.7058 13.7455 13.3774 14.2803 13.1533C14.8149 12.9293 15.3891 12.8135 15.9688 12.8135C16.5485 12.8135 17.1226 12.9292 17.6572 13.1533C18.1249 13.3493 18.5544 13.6251 18.9268 13.9678L19.083 14.1191L19.084 14.1201L19.7773 14.8203L20 15.0439L20.2217 14.8203L20.915 14.1201L20.917 14.1191C21.2722 13.7569 21.687 13.4591 22.1436 13.2402L22.3418 13.1514C22.8097 12.9551 23.3078 12.8422 23.8135 12.8174L24.0303 12.8125ZM24.0303 13.4375C23.5315 13.4369 23.0374 13.5369 22.5781 13.7314C22.1759 13.9018 21.8074 14.1417 21.4893 14.4395L21.3574 14.5684L20 15.9521L18.6357 14.5566L18.6348 14.5557L18.502 14.4268C18.1831 14.1328 17.8148 13.8966 17.4141 13.7285C16.9563 13.5365 16.4651 13.4375 15.9688 13.4375C15.4722 13.4375 14.9803 13.5364 14.5225 13.7285C14.1219 13.8966 13.7543 14.133 13.4355 14.4268L13.3018 14.5557C12.5878 15.2806 12.1875 16.2579 12.1875 17.2754C12.1876 18.2292 12.5396 19.1472 13.1719 19.8555L13.3018 19.9941H13.3027L19.7773 26.5508L20 26.7764L20.2217 26.5508L26.6973 19.9941C27.4113 19.2693 27.8114 18.2928 27.8115 17.2754C27.8115 16.3213 27.4597 15.4028 26.8271 14.6943L26.6973 14.5557C26.3497 14.2014 25.9352 13.9195 25.4775 13.7275C25.0195 13.5354 24.5269 13.4371 24.0303 13.4375Z" fill="#BDBDBD" stroke="#252B42" stroke-width="0.625"/>
</svg>
